<svg xmlns="http://www.w3.org/2000/svg" xmlns:xlink="http://www.w3.org/1999/xlink" version="1.1" x="0px" y="0px" viewBox="0 0 24 30" style="enable-background:new 0 0 24 24;" xml:space="preserve"><style type="text/css">
	.st0{display:none;}
	.st1{display:inline;}
</style><g><path d="M17.25,13.8085938v-3c0-0.4140625-0.3359375-0.75-0.75-0.75h-2.25v-2.25c0-0.4140625-0.3359375-0.75-0.75-0.75h-3   c-0.4140625,0-0.75,0.3359375-0.75,0.75v2.25H7.5c-0.4140625,0-0.75,0.3359375-0.75,0.75v3c0,0.4140625,0.3359375,0.75,0.75,0.75   h2.25v7.25c0,0.4140625,0.3359375,0.75,0.75,0.75h3c0.4140625,0,0.75-0.3359375,0.75-0.75v-7.25h2.25   C16.9140625,14.5585938,17.25,14.2226562,17.25,13.8085938z M15.75,13.0585938H13.5c-0.4140625,0-0.75,0.3359375-0.75,0.75v7.25   h-1.5v-7.25c0-0.4140625-0.3359375-0.75-0.75-0.75H8.25v-1.5h2.25c0.4140625,0,0.75-0.3359375,0.75-0.75v-2.25h1.5v2.25   c0,0.4140625,0.3359375,0.75,0.75,0.75h2.25V13.0585938z M11.25,5.1914062v-3c0-0.4140625,0.3359375-0.75,0.75-0.75   s0.75,0.3359375,0.75,0.75v3c0,0.4140625-0.3359375,0.75-0.75,0.75S11.25,5.6054688,11.25,5.1914062z M22.75,12.1914062   c0,0.4140625-0.3359375,0.75-0.75,0.75h-3c-0.4140625,0-0.75-0.3359375-0.75-0.75s0.3359375-0.75,0.75-0.75h3   C22.4140625,11.4414062,22.75,11.7773438,22.75,12.1914062z M5,12.9414062H2c-0.4140625,0-0.75-0.3359375-0.75-0.75   s0.3359375-0.75,0.75-0.75h3c0.4140625,0,0.75,0.3359375,0.75,0.75S5.4140625,12.9414062,5,12.9414062z M4.1591797,5.4111328   c-0.2929688-0.2929688-0.2929688-0.7675781,0-1.0605469s0.7675781-0.2929688,1.0605469,0l2.3105469,2.3105469   c0.2929688,0.2929688,0.2929688,0.7675781,0,1.0605469C7.3837891,7.8681641,7.1918945,7.9414062,7,7.9414062   S6.6162109,7.8681641,6.4697266,7.7216797L4.1591797,5.4111328z M16.7421875,7.4692383   c-0.2929688-0.2929688-0.2929688-0.7675781,0-1.0605469l2.3105469-2.3105469c0.2929688-0.2929688,0.7675781-0.2929688,1.0605469,0   s0.2929688,0.7675781,0,1.0605469l-2.3105469,2.3105469c-0.1464844,0.1464844-0.3383789,0.2197266-0.5302734,0.2197266   S16.8886719,7.6157227,16.7421875,7.4692383z M7.5302734,16.6611328c0.2929688,0.2929688,0.2929688,0.7675781,0,1.0605469   l-2.3105469,2.3105469c-0.1464844,0.1464844-0.3383789,0.2197266-0.5302734,0.2197266s-0.3837891-0.0732422-0.5302734-0.2197266   c-0.2929688-0.2929688-0.2929688-0.7675781,0-1.0605469l2.3105469-2.3105469   C6.7626953,16.3681641,7.2373047,16.3681641,7.5302734,16.6611328z M19.8408203,18.9716797   c0.2929688,0.2929688,0.2929688,0.7675781,0,1.0605469c-0.1464844,0.1464844-0.3383789,0.2197266-0.5302734,0.2197266   s-0.3837891-0.0732422-0.5302734-0.2197266l-2.3105469-2.3105469c-0.2929688-0.2929688-0.2929688-0.7675781,0-1.0605469   s0.7675781-0.2929688,1.0605469,0L19.8408203,18.9716797z M7.8364258,4.1157227   C7.6777344,3.7329102,7.859375,3.2944336,8.2421875,3.1357422C8.6230469,2.9770508,9.0634766,3.1591797,9.222168,3.5415039   l0.765625,1.8476562c0.1586914,0.3828125-0.0229492,0.8212891-0.4057617,0.9799805   c-0.09375,0.0390625-0.190918,0.0571289-0.2866211,0.0571289c-0.2944336,0-0.5737305-0.1743164-0.6933594-0.4628906   L7.8364258,4.1157227z M13.949707,5.3891602l0.7651367-1.8476562c0.1586914-0.3818359,0.5952148-0.5649414,0.9799805-0.4057617   c0.3823242,0.1582031,0.5644531,0.597168,0.4057617,0.9799805l-0.7651367,1.8476562   c-0.1196289,0.2885742-0.3989258,0.4628906-0.6933594,0.4628906c-0.0952148,0-0.1923828-0.0180664-0.2866211-0.0571289   C13.9731445,6.2109375,13.7910156,5.7719727,13.949707,5.3891602z M2.9848633,8.4951172   C3.1430664,8.112793,3.5825195,7.9287109,3.9648438,8.0893555L5.8125,8.8549805   c0.3828125,0.1586914,0.5644531,0.597168,0.4057617,0.9799805c-0.1196289,0.2885742-0.3989258,0.4628906-0.6933594,0.4628906   c-0.0957031,0-0.1928711-0.0180664-0.2866211-0.0571289L3.390625,9.4750977   C3.0078125,9.3164062,2.8261719,8.8779297,2.9848633,8.4951172z M20.9272461,8.4951172   c0.1586914,0.3828125-0.0229492,0.8212891-0.4057617,0.9799805l-1.8476562,0.765625   c-0.09375,0.0390625-0.190918,0.0571289-0.2866211,0.0571289c-0.2944336,0-0.5737305-0.1743164-0.6933594-0.4628906   c-0.1586914-0.3828125,0.0229492-0.8212891,0.4057617-0.9799805l1.8476562-0.765625   C20.3291016,7.9291992,20.7680664,8.112793,20.9272461,8.4951172z M4.0087891,16.2670898   c-0.09375,0.0390625-0.190918,0.0571289-0.2866211,0.0571289c-0.2944336,0-0.5737305-0.1743164-0.6933594-0.4628906   c-0.1586914-0.3828125,0.0229492-0.8212891,0.4057617-0.9799805l1.8476562-0.765625   c0.3808594-0.1591797,0.8212891,0.0229492,0.9799805,0.4057617s-0.0229492,0.8212891-0.4057617,0.9799805L4.0087891,16.2670898z    M20.9711914,15.8613281c-0.1196289,0.2885742-0.3989258,0.4628906-0.6933594,0.4628906   c-0.0957031,0-0.1928711-0.0180664-0.2866211-0.0571289l-1.8476562-0.765625   c-0.3828125-0.1586914-0.5644531-0.597168-0.4057617-0.9799805c0.1577148-0.3828125,0.5961914-0.5654297,0.9799805-0.4057617   l1.8476562,0.765625C20.9482422,15.0400391,21.1298828,15.4785156,20.9711914,15.8613281z"/></g>"></svg>